<svg xmlns="http://www.w3.org/2000/svg" viewBox="0 0 64 64" role="img" aria-label="blackstem">
  <defs>
    <linearGradient id="leaf" x1="0%" y1="0%" x2="100%" y2="100%">
      <stop offset="0%" stop-color="#48f0bd"/>
      <stop offset="100%" stop-color="#199c7e"/>
    </linearGradient>
  </defs>

  <g fill="none" stroke="#111827" stroke-width="4.5" stroke-linecap="round" stroke-linejoin="round">
    <path d="M31 57V9"/>
    <path d="M31 34L15 20"/>
    <path d="M31 27L47 14"/>
    <path d="M31 45L50 35"/>
  </g>

  <g fill="none" stroke="#111827" stroke-width="3.2">
    <circle cx="31" cy="9" r="4.8"/>
    <circle cx="15" cy="20" r="4.8"/>
    <circle cx="47" cy="14" r="4.8"/>
    <circle cx="50" cy="35" r="4.8"/>
  </g>

  <g fill="url(#leaf)">
    <path d="M4 15C16 12 26 20 26 34C13 34 4 27 4 15Z"/>
    <path d="M39 10C49 5 59 8 59 20C49 22 40 19 39 10Z"/>
    <path d="M7 38C19 35 29 42 29 57C16 57 7 50 7 38Z"/>
  </g>

  <g fill="none" stroke="#111827" stroke-width="2.7" stroke-linecap="round">
    <path d="M10 19L22 30"/>
    <path d="M44 15L56 10"/>
    <path d="M13 41L27 53"/>
  </g>
</svg>